<svg xmlns="http://www.w3.org/2000/svg" xmlns:xlink="http://www.w3.org/1999/xlink" width="90" height="27" viewBox="0 0 90 27">
    <defs>
        <path id="a" d="M12.429 9.333h5.067l3.837 11.378L27.33 0h4.93L23.83 26.993h-4.814l-4.163-12.06-4.09 12.06H5.877L.194 9.333H5.26l3.295 11.342 3.873-11.342zM57.399 0v23.331c0 1.185.073 2.907.145 3.625h-4.597c-.073-.359-.181-1.65-.181-2.476-.797 1.4-2.606 2.477-4.995 2.477h-.336c-5.022-.046-8.6-3.98-8.6-9.297 0-5.169 3.511-9.225 8.543-9.225h.346c3.01.027 4.432 1.266 4.933 2.19V0H57.4zM43.686 17.66c0 3.159 1.882 5.025 4.416 5.025h.34c2.417-.046 4.288-1.906 4.288-5.06 0-3.115-1.865-4.869-4.277-4.917l-.351-.001c-2.462 0-4.416 1.794-4.416 4.953zm-6.66 9.297H32.21V9.297h4.814v17.66zm35.61-6.748l4.017 1.184c-.905 3.051-3.728 5.6-8.108 5.6-4.887 0-9.195-3.482-9.195-9.44 0-5.636 4.2-9.297 8.76-9.297 5.502 0 8.796 3.481 8.796 9.153 0 .682-.072 1.4-.072 1.471H64.092c.109 2.334 2.1 4.02 4.489 4.02 2.244 0 3.475-1.112 4.054-2.691zM64.2 15.614h7.963c-.072-1.759-1.23-3.482-3.981-3.482-2.498 0-3.873 1.867-3.982 3.482zm25.613-6.851v4.907a7.334 7.334 0 0 0-1.465-.146c-2.49 0-4.65 1.208-4.65 5.09v8.24h-4.871V8.836h4.724v2.673c1.098-2.38 3.588-2.82 5.127-2.82.402 0 .769.037 1.135.074z"/>
    </defs>
    <g fill="none" fill-rule="evenodd">
        <mask id="b" fill="#fff">
            <use xlink:href="#a"/>
        </mask>
        <use fill="#000" xlink:href="#a"/>
        <g fill="#000" mask="url(#b)">
            <path d="M0 0h88.448v26.534H0z"/>
        </g>
    </g>
</svg>
